<?xml version="1.0" encoding="UTF-8"?><svg xmlns="http://www.w3.org/2000/svg" viewBox="0 0 37.63 37"><g id="a"/><g id="b"><g id="c"><g><path d="M15.44,0c2.26,0,4.52,0,6.78,0,.12,.02,.23,.07,.35,.07,1.3,.04,2.6,.03,3.9,.11,1.03,.06,2.08,.15,3.09,.37,2.96,.64,5.22,2.24,6.66,4.9,.87,1.6,1.19,3.34,1.31,5.13,.02,.38,.07,.76,.1,1.14v13.31c-.03,.21-.07,.42-.1,.64-.1,.99-.13,2-.31,2.97-.47,2.53-1.7,4.62-3.82,6.17-1.88,1.37-4.05,1.91-6.34,2.04-1.76,.1-3.53,.13-5.3,.14-2.26,.02-4.52,0-6.78-.03-2.06-.02-4.13,.03-6.17-.31-2.73-.46-5-1.67-6.65-3.9-1.34-1.8-1.87-3.88-2.01-6.06C.05,25.14,0,23.58,0,22.03c-.01-2.8,.02-5.59,.05-8.39,.02-1.65,.03-3.3,.31-4.93,.46-2.68,1.7-4.91,3.96-6.53C6.2,.82,8.38,.31,10.67,.18c1.47-.08,2.95-.07,4.42-.11C15.21,.07,15.32,.02,15.44,0Zm3.38,33.73h0c1.82,0,3.64,.04,5.45,0,1.37-.04,2.75-.11,4.1-.29,2.77-.36,4.85-2.24,5.52-4.89,.41-1.6,.43-3.25,.43-4.88,0-4.46,.15-8.92-.14-13.37-.08-1.26-.37-2.48-1.03-3.58-1.22-2.05-3.17-2.95-5.48-3.18-1.32-.13-2.64-.2-3.97-.2-3.97,0-7.93,.02-11.9,.06-.9,.01-1.81,.13-2.7,.28-3,.5-5.14,2.67-5.49,5.63-.18,1.54-.28,3.09-.29,4.64-.02,3.66,.02,7.33,.06,10.99,.01,.96,.09,1.92,.23,2.87,.42,2.93,2.35,4.99,5.31,5.54,1.35,.25,2.75,.32,4.13,.36,1.91,.06,3.83,.01,5.75,.01Z"/><path d="M18.81,27.97c-4.63,.04-8.68-3.34-9.47-7.79-.9-5.08,2.48-9.96,7.63-10.95,5.21-1,10.36,2.37,11.32,7.47,.62,3.3-.32,6.19-2.74,8.59-.18,.18-.44,.3-.66,.44-.07,.05-.17,.07-.21,.13-.63,.85-1.6,1.17-2.52,1.53-1.07,.42-2.19,.61-3.34,.58Zm.04-3.21c3.55-.07,6.34-2.76,6.32-6.26-.02-3.51-2.83-6.22-6.37-6.2-3.58,.02-6.31,2.79-6.31,6.23,0,3.5,2.82,6.18,6.36,6.23Z"/><path d="M31.11,8.65c0,1.18-1,2.2-2.2,2.16-1.3-.04-2.19-.94-2.22-2.19-.02-1.2,1.02-2.15,2.25-2.15,1.2,0,2.18,.98,2.17,2.18Z"/></g></g></g></svg>